<mxfile host="app.diagrams.net" modified="2023-06-01T13:04:52.774Z" agent="Mozilla/5.0 (Windows NT 10.0; Win64; x64) AppleWebKit/537.36 (KHTML, like Gecko) Chrome/112.0.0.0 Safari/537.36" etag="Pj6p-wCmIHKKflrpJdjo" version="21.3.2" type="device" pages="2">
  <diagram id="C5RBs43oDa-KdzZeNtuy" name="Bai 1">
    <mxGraphModel dx="1750" dy="930" grid="1" gridSize="10" guides="1" tooltips="1" connect="1" arrows="1" fold="1" page="1" pageScale="1" pageWidth="827" pageHeight="1169" math="0" shadow="0">
      <root>
        <mxCell id="WIyWlLk6GJQsqaUBKTNV-0" />
        <mxCell id="WIyWlLk6GJQsqaUBKTNV-1" parent="WIyWlLk6GJQsqaUBKTNV-0" />
        <mxCell id="zse2MrQWsqaX5oXjiPPC-2" value="" style="edgeStyle=orthogonalEdgeStyle;rounded=0;orthogonalLoop=1;jettySize=auto;html=1;" edge="1" parent="WIyWlLk6GJQsqaUBKTNV-1" source="zse2MrQWsqaX5oXjiPPC-0" target="zse2MrQWsqaX5oXjiPPC-1">
          <mxGeometry relative="1" as="geometry" />
        </mxCell>
        <mxCell id="zse2MrQWsqaX5oXjiPPC-0" value="BEGIN" style="ellipse;whiteSpace=wrap;html=1;" vertex="1" parent="WIyWlLk6GJQsqaUBKTNV-1">
          <mxGeometry x="350" y="40" width="120" height="80" as="geometry" />
        </mxCell>
        <mxCell id="zse2MrQWsqaX5oXjiPPC-4" value="" style="edgeStyle=orthogonalEdgeStyle;rounded=0;orthogonalLoop=1;jettySize=auto;html=1;" edge="1" parent="WIyWlLk6GJQsqaUBKTNV-1" source="zse2MrQWsqaX5oXjiPPC-1" target="zse2MrQWsqaX5oXjiPPC-3">
          <mxGeometry relative="1" as="geometry" />
        </mxCell>
        <mxCell id="zse2MrQWsqaX5oXjiPPC-1" value="Input n&lt;br&gt;i = 1500" style="shape=parallelogram;perimeter=parallelogramPerimeter;whiteSpace=wrap;html=1;fixedSize=1;" vertex="1" parent="WIyWlLk6GJQsqaUBKTNV-1">
          <mxGeometry x="350" y="190" width="120" height="60" as="geometry" />
        </mxCell>
        <mxCell id="zse2MrQWsqaX5oXjiPPC-6" value="" style="edgeStyle=orthogonalEdgeStyle;rounded=0;orthogonalLoop=1;jettySize=auto;html=1;" edge="1" parent="WIyWlLk6GJQsqaUBKTNV-1" source="zse2MrQWsqaX5oXjiPPC-3" target="zse2MrQWsqaX5oXjiPPC-5">
          <mxGeometry relative="1" as="geometry" />
        </mxCell>
        <mxCell id="zse2MrQWsqaX5oXjiPPC-12" value="" style="edgeStyle=orthogonalEdgeStyle;rounded=0;orthogonalLoop=1;jettySize=auto;html=1;" edge="1" parent="WIyWlLk6GJQsqaUBKTNV-1" source="zse2MrQWsqaX5oXjiPPC-3" target="zse2MrQWsqaX5oXjiPPC-11">
          <mxGeometry relative="1" as="geometry" />
        </mxCell>
        <mxCell id="zse2MrQWsqaX5oXjiPPC-3" value="i &amp;lt;= n" style="rhombus;whiteSpace=wrap;html=1;" vertex="1" parent="WIyWlLk6GJQsqaUBKTNV-1">
          <mxGeometry x="370" y="320" width="80" height="80" as="geometry" />
        </mxCell>
        <mxCell id="zse2MrQWsqaX5oXjiPPC-5" value="Exit&lt;br&gt;While loop" style="shape=parallelogram;perimeter=parallelogramPerimeter;whiteSpace=wrap;html=1;fixedSize=1;" vertex="1" parent="WIyWlLk6GJQsqaUBKTNV-1">
          <mxGeometry x="700" y="480" width="120" height="60" as="geometry" />
        </mxCell>
        <mxCell id="zse2MrQWsqaX5oXjiPPC-9" value="False" style="text;html=1;strokeColor=none;fillColor=none;align=center;verticalAlign=middle;whiteSpace=wrap;rounded=0;" vertex="1" parent="WIyWlLk6GJQsqaUBKTNV-1">
          <mxGeometry x="530" y="330" width="60" height="30" as="geometry" />
        </mxCell>
        <mxCell id="zse2MrQWsqaX5oXjiPPC-10" value="True" style="text;html=1;strokeColor=none;fillColor=none;align=center;verticalAlign=middle;whiteSpace=wrap;rounded=0;" vertex="1" parent="WIyWlLk6GJQsqaUBKTNV-1">
          <mxGeometry x="350" y="420" width="60" height="30" as="geometry" />
        </mxCell>
        <mxCell id="zse2MrQWsqaX5oXjiPPC-14" value="" style="edgeStyle=orthogonalEdgeStyle;rounded=0;orthogonalLoop=1;jettySize=auto;html=1;" edge="1" parent="WIyWlLk6GJQsqaUBKTNV-1" source="zse2MrQWsqaX5oXjiPPC-11" target="zse2MrQWsqaX5oXjiPPC-13">
          <mxGeometry relative="1" as="geometry" />
        </mxCell>
        <mxCell id="zse2MrQWsqaX5oXjiPPC-11" value="i % 5 == 0&lt;br&gt;i % 7 == 0&amp;nbsp;" style="rhombus;whiteSpace=wrap;html=1;" vertex="1" parent="WIyWlLk6GJQsqaUBKTNV-1">
          <mxGeometry x="340" y="480" width="140" height="80" as="geometry" />
        </mxCell>
        <mxCell id="zse2MrQWsqaX5oXjiPPC-16" value="" style="edgeStyle=orthogonalEdgeStyle;rounded=0;orthogonalLoop=1;jettySize=auto;html=1;" edge="1" parent="WIyWlLk6GJQsqaUBKTNV-1" source="zse2MrQWsqaX5oXjiPPC-13" target="zse2MrQWsqaX5oXjiPPC-15">
          <mxGeometry relative="1" as="geometry" />
        </mxCell>
        <mxCell id="zse2MrQWsqaX5oXjiPPC-13" value="Print i" style="shape=parallelogram;perimeter=parallelogramPerimeter;whiteSpace=wrap;html=1;fixedSize=1;" vertex="1" parent="WIyWlLk6GJQsqaUBKTNV-1">
          <mxGeometry x="350" y="600" width="120" height="60" as="geometry" />
        </mxCell>
        <mxCell id="zse2MrQWsqaX5oXjiPPC-15" value="i = i + 1" style="whiteSpace=wrap;html=1;" vertex="1" parent="WIyWlLk6GJQsqaUBKTNV-1">
          <mxGeometry x="350" y="710" width="120" height="60" as="geometry" />
        </mxCell>
        <mxCell id="zse2MrQWsqaX5oXjiPPC-17" value="True" style="text;html=1;strokeColor=none;fillColor=none;align=center;verticalAlign=middle;whiteSpace=wrap;rounded=0;" vertex="1" parent="WIyWlLk6GJQsqaUBKTNV-1">
          <mxGeometry x="340" y="560" width="60" height="30" as="geometry" />
        </mxCell>
        <mxCell id="zse2MrQWsqaX5oXjiPPC-18" value="" style="endArrow=classic;html=1;rounded=0;exitX=1;exitY=0.5;exitDx=0;exitDy=0;entryX=1;entryY=0.5;entryDx=0;entryDy=0;" edge="1" parent="WIyWlLk6GJQsqaUBKTNV-1" source="zse2MrQWsqaX5oXjiPPC-11" target="zse2MrQWsqaX5oXjiPPC-15">
          <mxGeometry width="50" height="50" relative="1" as="geometry">
            <mxPoint x="460" y="650" as="sourcePoint" />
            <mxPoint x="510" y="600" as="targetPoint" />
            <Array as="points">
              <mxPoint x="560" y="520" />
              <mxPoint x="560" y="740" />
            </Array>
          </mxGeometry>
        </mxCell>
        <mxCell id="zse2MrQWsqaX5oXjiPPC-19" value="False" style="text;html=1;strokeColor=none;fillColor=none;align=center;verticalAlign=middle;whiteSpace=wrap;rounded=0;" vertex="1" parent="WIyWlLk6GJQsqaUBKTNV-1">
          <mxGeometry x="490" y="495" width="60" height="30" as="geometry" />
        </mxCell>
        <mxCell id="zse2MrQWsqaX5oXjiPPC-20" value="" style="endArrow=classic;html=1;rounded=0;exitX=0;exitY=0.5;exitDx=0;exitDy=0;entryX=-0.054;entryY=0.508;entryDx=0;entryDy=0;entryPerimeter=0;" edge="1" parent="WIyWlLk6GJQsqaUBKTNV-1" source="zse2MrQWsqaX5oXjiPPC-15" target="zse2MrQWsqaX5oXjiPPC-3">
          <mxGeometry width="50" height="50" relative="1" as="geometry">
            <mxPoint x="460" y="650" as="sourcePoint" />
            <mxPoint x="250" y="510" as="targetPoint" />
            <Array as="points">
              <mxPoint x="280" y="740" />
              <mxPoint x="280" y="361" />
            </Array>
          </mxGeometry>
        </mxCell>
      </root>
    </mxGraphModel>
  </diagram>
  <diagram id="wf12QIEXW0j4kOs9TvtW" name="bai 4">
    <mxGraphModel dx="1909" dy="1015" grid="1" gridSize="10" guides="1" tooltips="1" connect="1" arrows="1" fold="1" page="1" pageScale="1" pageWidth="850" pageHeight="1100" math="0" shadow="0">
      <root>
        <mxCell id="0" />
        <mxCell id="1" parent="0" />
        <mxCell id="SiZeyYcZMF6CG2K6U2bA-1" value="" style="edgeStyle=orthogonalEdgeStyle;rounded=0;orthogonalLoop=1;jettySize=auto;html=1;" edge="1" parent="1" source="SiZeyYcZMF6CG2K6U2bA-2" target="SiZeyYcZMF6CG2K6U2bA-4">
          <mxGeometry relative="1" as="geometry" />
        </mxCell>
        <mxCell id="SiZeyYcZMF6CG2K6U2bA-2" value="BEGIN" style="ellipse;whiteSpace=wrap;html=1;" vertex="1" parent="1">
          <mxGeometry x="350" y="40" width="120" height="80" as="geometry" />
        </mxCell>
        <mxCell id="SiZeyYcZMF6CG2K6U2bA-3" value="" style="edgeStyle=orthogonalEdgeStyle;rounded=0;orthogonalLoop=1;jettySize=auto;html=1;" edge="1" parent="1" source="SiZeyYcZMF6CG2K6U2bA-4" target="SiZeyYcZMF6CG2K6U2bA-7">
          <mxGeometry relative="1" as="geometry" />
        </mxCell>
        <mxCell id="SiZeyYcZMF6CG2K6U2bA-4" value="Input n&lt;br&gt;i = 1500" style="shape=parallelogram;perimeter=parallelogramPerimeter;whiteSpace=wrap;html=1;fixedSize=1;" vertex="1" parent="1">
          <mxGeometry x="350" y="190" width="120" height="60" as="geometry" />
        </mxCell>
        <mxCell id="SiZeyYcZMF6CG2K6U2bA-5" value="" style="edgeStyle=orthogonalEdgeStyle;rounded=0;orthogonalLoop=1;jettySize=auto;html=1;" edge="1" parent="1" source="SiZeyYcZMF6CG2K6U2bA-7" target="SiZeyYcZMF6CG2K6U2bA-8">
          <mxGeometry relative="1" as="geometry" />
        </mxCell>
        <mxCell id="SiZeyYcZMF6CG2K6U2bA-6" value="" style="edgeStyle=orthogonalEdgeStyle;rounded=0;orthogonalLoop=1;jettySize=auto;html=1;" edge="1" parent="1" source="SiZeyYcZMF6CG2K6U2bA-7" target="SiZeyYcZMF6CG2K6U2bA-12">
          <mxGeometry relative="1" as="geometry" />
        </mxCell>
        <mxCell id="SiZeyYcZMF6CG2K6U2bA-7" value="i &amp;lt;= n" style="rhombus;whiteSpace=wrap;html=1;" vertex="1" parent="1">
          <mxGeometry x="370" y="320" width="80" height="80" as="geometry" />
        </mxCell>
        <mxCell id="SiZeyYcZMF6CG2K6U2bA-8" value="Exit&lt;br&gt;While loop" style="shape=parallelogram;perimeter=parallelogramPerimeter;whiteSpace=wrap;html=1;fixedSize=1;" vertex="1" parent="1">
          <mxGeometry x="700" y="480" width="120" height="60" as="geometry" />
        </mxCell>
        <mxCell id="SiZeyYcZMF6CG2K6U2bA-9" value="False" style="text;html=1;strokeColor=none;fillColor=none;align=center;verticalAlign=middle;whiteSpace=wrap;rounded=0;" vertex="1" parent="1">
          <mxGeometry x="530" y="330" width="60" height="30" as="geometry" />
        </mxCell>
        <mxCell id="SiZeyYcZMF6CG2K6U2bA-10" value="True" style="text;html=1;strokeColor=none;fillColor=none;align=center;verticalAlign=middle;whiteSpace=wrap;rounded=0;" vertex="1" parent="1">
          <mxGeometry x="350" y="420" width="60" height="30" as="geometry" />
        </mxCell>
        <mxCell id="SiZeyYcZMF6CG2K6U2bA-11" value="" style="edgeStyle=orthogonalEdgeStyle;rounded=0;orthogonalLoop=1;jettySize=auto;html=1;" edge="1" parent="1" source="SiZeyYcZMF6CG2K6U2bA-12" target="SiZeyYcZMF6CG2K6U2bA-14">
          <mxGeometry relative="1" as="geometry" />
        </mxCell>
        <mxCell id="SiZeyYcZMF6CG2K6U2bA-12" value="i % 5 == 0&lt;br&gt;i % 7 == 0&amp;nbsp;" style="rhombus;whiteSpace=wrap;html=1;" vertex="1" parent="1">
          <mxGeometry x="340" y="480" width="140" height="80" as="geometry" />
        </mxCell>
        <mxCell id="SiZeyYcZMF6CG2K6U2bA-13" value="" style="edgeStyle=orthogonalEdgeStyle;rounded=0;orthogonalLoop=1;jettySize=auto;html=1;" edge="1" parent="1" source="SiZeyYcZMF6CG2K6U2bA-14" target="SiZeyYcZMF6CG2K6U2bA-15">
          <mxGeometry relative="1" as="geometry" />
        </mxCell>
        <mxCell id="SiZeyYcZMF6CG2K6U2bA-14" value="Print i" style="shape=parallelogram;perimeter=parallelogramPerimeter;whiteSpace=wrap;html=1;fixedSize=1;" vertex="1" parent="1">
          <mxGeometry x="350" y="600" width="120" height="60" as="geometry" />
        </mxCell>
        <mxCell id="SiZeyYcZMF6CG2K6U2bA-15" value="i = i + 1" style="whiteSpace=wrap;html=1;" vertex="1" parent="1">
          <mxGeometry x="350" y="710" width="120" height="60" as="geometry" />
        </mxCell>
        <mxCell id="SiZeyYcZMF6CG2K6U2bA-16" value="True" style="text;html=1;strokeColor=none;fillColor=none;align=center;verticalAlign=middle;whiteSpace=wrap;rounded=0;" vertex="1" parent="1">
          <mxGeometry x="340" y="560" width="60" height="30" as="geometry" />
        </mxCell>
        <mxCell id="SiZeyYcZMF6CG2K6U2bA-17" value="" style="endArrow=classic;html=1;rounded=0;exitX=1;exitY=0.5;exitDx=0;exitDy=0;entryX=1;entryY=0.5;entryDx=0;entryDy=0;" edge="1" parent="1" source="SiZeyYcZMF6CG2K6U2bA-12" target="SiZeyYcZMF6CG2K6U2bA-15">
          <mxGeometry width="50" height="50" relative="1" as="geometry">
            <mxPoint x="460" y="650" as="sourcePoint" />
            <mxPoint x="510" y="600" as="targetPoint" />
            <Array as="points">
              <mxPoint x="560" y="520" />
              <mxPoint x="560" y="740" />
            </Array>
          </mxGeometry>
        </mxCell>
        <mxCell id="SiZeyYcZMF6CG2K6U2bA-18" value="False" style="text;html=1;strokeColor=none;fillColor=none;align=center;verticalAlign=middle;whiteSpace=wrap;rounded=0;" vertex="1" parent="1">
          <mxGeometry x="490" y="495" width="60" height="30" as="geometry" />
        </mxCell>
        <mxCell id="SiZeyYcZMF6CG2K6U2bA-19" value="" style="endArrow=classic;html=1;rounded=0;exitX=0;exitY=0.5;exitDx=0;exitDy=0;entryX=-0.054;entryY=0.508;entryDx=0;entryDy=0;entryPerimeter=0;" edge="1" parent="1" source="SiZeyYcZMF6CG2K6U2bA-15" target="SiZeyYcZMF6CG2K6U2bA-7">
          <mxGeometry width="50" height="50" relative="1" as="geometry">
            <mxPoint x="460" y="650" as="sourcePoint" />
            <mxPoint x="250" y="510" as="targetPoint" />
            <Array as="points">
              <mxPoint x="280" y="740" />
              <mxPoint x="280" y="361" />
            </Array>
          </mxGeometry>
        </mxCell>
      </root>
    </mxGraphModel>
  </diagram>
</mxfile>
